Coordinates
version=1
nRows=49
nColumns=12
inDegrees=yes

Units are S.I. units (second, meters, Newtons, ...)
Angles are in degrees

endheader
time	SC_y	SC_z	SC_x	AC_y	AC_z	AC_x	GH_y	GH_z	GH_yy	EL_x	PS_y
       0.0              -29.55            0.3          51.97          33.29         -3.168          7.182          76.08         -9.258         -58.58          53.19          154.0
   0.01862              -29.55         0.3024          51.97          33.29         -3.167          7.179          76.07         -9.244         -58.59           53.2          154.0
   0.03723              -29.55         0.3048          51.98          33.29         -3.165          7.176          76.07         -9.229          -58.6          53.21          154.0
   0.05585              -29.55         0.3075          51.98          33.29         -3.163          7.172          76.06         -9.214         -58.62          53.22          154.0
   0.07447              -29.55         0.3103          51.99          33.29         -3.161          7.169          76.06         -9.197         -58.63          53.24          153.9
   0.09309              -29.56         0.3133          51.99          33.29         -3.159          7.165          76.05         -9.179         -58.65          53.25          153.9
    0.1117              -29.56         0.3165           52.0           33.3         -3.157          7.161          76.05          -9.16         -58.66          53.27          153.9
    0.1303              -29.56           0.32          52.01           33.3         -3.155          7.156          76.04         -9.139         -58.68          53.29          153.9
    0.1489              -29.56         0.3236          52.01           33.3         -3.152          7.151          76.04         -9.117          -58.7          53.31          153.9
    0.1676              -29.57         0.3276          52.02           33.3          -3.15          7.146          76.03         -9.094         -58.72          53.33          153.8
    0.1862              -29.57         0.3318          52.03           33.3         -3.147          7.141          76.02         -9.068         -58.74          53.35          153.8
    0.2048              -29.57         0.3364          52.04          33.31         -3.144          7.135          76.01         -9.041         -58.77          53.37          153.8
    0.2234              -29.58         0.3413          52.05          33.31         -3.141          7.128          76.01         -9.012         -58.79           53.4          153.8
     0.242              -29.58         0.3466          52.06          33.31         -3.137          7.122           76.0          -8.98         -58.82          53.43          153.7
    0.2606              -29.58         0.3524          52.07          33.32         -3.133          7.114          75.99         -8.946         -58.85          53.46          153.7
    0.2793              -29.59         0.3586          52.08          33.32         -3.129          7.106          75.98         -8.908         -58.88          53.49          153.7
    0.2979              -29.59         0.3654           52.1          33.32         -3.125          7.097          75.96         -8.868         -58.91          53.52          153.6
    0.3165               -29.6         0.3727          52.11          33.33          -3.12          7.088          75.95         -8.824         -58.95          53.56          153.6
    0.3351               -29.6         0.3808          52.13          33.33         -3.114          7.077          75.94         -8.776         -58.99           53.6          153.5
    0.3537              -29.61         0.3896          52.14          33.34         -3.109          7.066          75.92         -8.723         -59.04          53.65          153.5
    0.3723              -29.61         0.3993          52.16          33.34         -3.102          7.053          75.91         -8.665         -59.09           53.7          153.4
     0.391              -29.62           0.41          52.18          33.35         -3.095           7.04          75.89         -8.601         -59.14          53.75          153.3
    0.4096              -29.63         0.4217          52.21          33.35         -3.087          7.024          75.87         -8.531          -59.2          53.82          153.3
    0.4282              -29.64         0.4348          52.23          33.36         -3.079          7.008          75.85         -8.453         -59.27          53.88          153.2
    0.4468              -29.65         0.4493          52.26          33.37         -3.069          6.989          75.82         -8.366         -59.34          53.96          153.1
    0.4654              -29.66         0.4655          52.29          33.38         -3.058          6.968          75.79          -8.27         -59.43          54.04          153.0
     0.484              -29.67         0.4836          52.33          33.39         -3.046          6.944          75.76         -8.161         -59.52          54.14          152.9
    0.5027              -29.68          0.504          52.37           33.4         -3.033          6.918          75.73         -8.039         -59.62          54.24          152.8
    0.5213               -29.7          0.527          52.41          33.41         -3.017          6.888          75.69         -7.902         -59.74          54.36          152.6
    0.5399              -29.71         0.5532          52.47          33.43           -3.0          6.854          75.64         -7.745         -59.87           54.5          152.5
    0.5585              -29.73          0.583          52.52          33.44          -2.98          6.816          75.59         -7.567         -60.03          54.65          152.3
    0.5771              -29.75         0.6173          52.59          33.46         -2.957          6.772          75.53         -7.362          -60.2          54.83          152.1
    0.5958              -29.78         0.6569          52.67          33.48         -2.931           6.72          75.46         -7.126          -60.4          55.03          151.9
    0.6144              -29.81         0.7028          52.76          33.51           -2.9          6.661          75.39         -6.851         -60.64          55.27          151.6
     0.633              -29.85         0.7566          52.87          33.54         -2.865          6.591          75.29          -6.53         -60.91          55.55          151.3
    0.6516              -29.89           0.82          52.99          33.57         -2.823          6.509          75.19         -6.151         -61.24          55.88          150.9
    0.6702              -29.94         0.8954          53.14          33.61         -2.773          6.412          75.06           -5.7         -61.62          56.27          150.4
    0.6888               -30.0         0.9857          53.32          33.66         -2.713          6.295           74.9          -5.16         -62.08          56.73          149.9
    0.7075              -30.07          1.095          53.53          33.72          -2.64          6.154          74.71         -4.507         -62.64           57.3          149.2
    0.7261              -30.15          1.228          53.79           33.8         -2.551          5.981          74.49          -3.71         -63.32          57.99          148.4
    0.7447              -30.26          1.393          54.12          33.89         -2.442          5.768           74.2         -2.725         -64.17          58.84          147.4
    0.7633              -30.39          1.599          54.52           34.0         -2.305          5.502          73.85         -1.497         -65.22          59.91          146.2
    0.7819              -30.56          1.857          55.03          34.14         -2.133          5.168          73.41        0.04932         -66.54          61.25          144.6
    0.8005              -30.78          2.186          55.68          34.32         -1.915          4.742          72.84          2.015         -68.22          62.95          142.7
    0.8192              -31.05          2.608          56.51          34.55         -1.635          4.198          72.12          4.532         -70.37          65.13          140.1
    0.8378               -31.4          3.148          57.57          34.85         -1.276          3.499           71.2          7.762         -73.14          67.92          136.9
    0.8564              -31.85          3.838          58.93          35.23        -0.8169          2.606          70.01          11.89         -76.66           71.5          132.7
     0.875              -32.42          4.706          60.64           35.7        -0.2402          1.484          68.53          17.07          -81.1          75.99          127.5
    0.8936              -33.11          5.764          62.72          36.29         0.4627         0.1162          66.72          23.39         -86.51          81.46          121.2
